. 
 
http://www.torrenting.com          :     Once & For all ;)


               www . Torrenting . Com 

(((((((((((((= Enjoy No RAR releases =))))))))))))))))))))


...................................NFO:....................................

.oooo    oooo  o8o  ooooo      ooo   .oooooo.     .oooooo..o oooooooooooo oooooooooooo oooooooooo.   
`888   .8P'   `"'  `888b.     `8'  d8P'  `Y8b   d8P'    `Y8 `888'     `8 `888'     `8 `888'   `Y8b  
 888  d8'    oooo   8 `88b.    8  888           Y88bo.       888          888          888      888 
 88888[      `888   8   `88b.  8  888            `"Y8888o.   888oooo8     888oooo8     888      888 
 888`88b.     888   8     `88b.8  888     ooooo      `"Y88b  888    "     888    "     888      888 
 888  `88b.   888   8       `888  `88.    .88'  oo     .d8P  888       o  888       o  888     d88' 
o888o  o888o o888o o8o        `8   `Y8bood8P'   8""88888P'  o888ooooood8 o888ooooood8 o888bood8P'   
----------------------------------------------------------------------------------------------------
                       Underworld Awakening (2012) TS READNFO XviD-KiNGSEED                              
----------------------------------------------------------------------------------------------------
Format                           : AVI
Format/Info                      : Audio Video Interleave
File size                        : 771 MiB
Duration                         : 1h 15mn
Overall bit rate                 : 1 433 Kbps

Video
ID                               : 0
Format                           : MPEG-4 Visual
Format profile                   : Advanced Simple@L5
Format settings, BVOP            : 2
Format settings, QPel            : No
Format settings, GMC             : No warppoints
Format settings, Matrix          : Default (H.263)
Muxing mode                      : Packed bitstream
Codec ID                         : XVID
Codec ID/Hint                    : XviD
Duration                         : 1h 15mn
Bit rate                         : 1 295 Kbps
Width                            : 640 pixels
Height                           : 272 pixels
Display aspect ratio             : 2.35:1
Frame rate                       : 25.000 fps
Color space                      : YUV
Chroma subsampling               : 4:2:0
Bit depth                        : 8 bits
Scan type                        : Progressive
Compression mode                 : Lossy
Bits/(Pixel*Frame)               : 0.298
Stream size                      : 697 MiB (90%)

Audio
ID                               : 1
Format                           : MPEG Audio
Format version                   : Version 1
Format profile                   : Layer 3
Mode                             : Joint stereo
Mode extension                   : MS Stereo
Codec ID                         : 55
Codec ID/Hint                    : MP3
Duration                         : 1h 15mn
Bit rate mode                    : Constant
Bit rate                         : 128 Kbps
Channel(s)                       : 2 channels
Sampling rate                    : 44.1 KHz
Compression mode                 : Lossy
Stream size                      : 68.9 MiB (9%)
-----------------------------------------------------------------------------------------------------
Title: Underworld: Awakening (2012)

IMDB:  http://www.imdb.com/title/tt1496025/

Plot:  When human forces discover the existence of the Vampire and Lycan clans, a war to eradicate 
both species commences. The vampire warrioress Selene leads the battle against humankind.
-----------------------------------------------------------------------------------------------------
Source(s): SiC (Thanks!) ;)

Notes: 
Big Thanks to SiC and LittlebirD for bringing us the new audio. Video we believe is the same russian
video from before. We tweaked/added loads of filters to touch up the video, won't go through them
all but there were quite a lot. We messed with the RGB, added a little bit more colour, tweaked the
brightness/contrast and a slight denoise and sharpen. Once all of the tweaking was done we decided
to re-size the video down a little. Came out pretty nice, not the best TS but not the worst either.
Sample is included so check that for the quality. Enjoy.

READNFO: First 2 minutes has CAM audio. :)
------------------------------------------------------------------------------------------------------
Greets: To All Of The Hard-Working p2p & Scene groups + All The Source Providers.

If you have something you can offer, please contact us at: kingseed@hush.com
------------------------------------------------------------------------------------------------------